<svg xmlns="http://www.w3.org/2000/svg" xmlns:xlink="http://www.w3.org/1999/xlink" width="500" zoomAndPan="magnify" viewBox="0 0 375 374.999991" height="500" preserveAspectRatio="xMidYMid meet" version="1.0"><defs><g/><clipPath id="1573f36c6a"><path d="M 50.878906 5.683594 L 323.878906 5.683594 L 323.878906 278.683594 L 50.878906 278.683594 Z M 50.878906 5.683594 " clip-rule="nonzero"/></clipPath></defs><g clip-path="url(#1573f36c6a)"><path fill="#0063b1" d="M 187.496094 278.917969 C 262.949219 278.917969 324.113281 217.75 324.113281 142.300781 C 324.113281 66.847656 262.949219 5.683594 187.496094 5.683594 C 112.046875 5.683594 50.878906 66.847656 50.878906 142.300781 C 50.878906 217.75 112.046875 278.917969 187.496094 278.917969 Z M 121.257812 69.4375 C 117.601562 69.4375 114.636719 72.402344 114.636719 76.058594 L 114.636719 132.363281 C 114.636719 136.023438 117.601562 138.988281 121.257812 138.988281 L 177.5625 138.988281 C 181.21875 138.988281 184.1875 136.023438 184.1875 132.363281 L 184.1875 76.058594 C 184.1875 72.402344 181.21875 69.4375 177.5625 69.4375 Z M 137.820312 85.996094 C 134.160156 85.996094 131.195312 88.960938 131.195312 92.621094 L 131.195312 115.804688 C 131.195312 119.460938 134.160156 122.425781 137.820312 122.425781 L 161 122.425781 C 164.660156 122.425781 167.625 119.460938 167.625 115.804688 L 167.625 92.621094 C 167.625 88.960938 164.660156 85.996094 161 85.996094 Z M 114.636719 152.234375 C 114.636719 148.574219 117.601562 145.609375 121.257812 145.609375 L 177.5625 145.609375 C 181.21875 145.609375 184.1875 148.574219 184.1875 152.234375 L 184.1875 208.539062 C 184.1875 212.195312 181.21875 215.160156 177.5625 215.160156 L 121.257812 215.160156 C 117.601562 215.160156 114.636719 212.195312 114.636719 208.539062 Z M 131.195312 168.792969 C 131.195312 165.136719 134.160156 162.171875 137.820312 162.171875 L 161 162.171875 C 164.660156 162.171875 167.625 165.136719 167.625 168.792969 L 167.625 191.976562 C 167.625 195.636719 164.660156 198.601562 161 198.601562 L 137.820312 198.601562 C 134.160156 198.601562 131.195312 195.636719 131.195312 191.976562 Z M 197.433594 69.4375 C 193.777344 69.4375 190.808594 72.402344 190.808594 76.058594 L 190.808594 132.363281 C 190.808594 136.023438 193.777344 138.988281 197.433594 138.988281 L 253.734375 138.988281 C 257.394531 138.988281 260.359375 136.023438 260.359375 132.363281 L 260.359375 76.058594 C 260.359375 72.402344 257.394531 69.4375 253.734375 69.4375 Z M 213.992188 85.996094 C 210.335938 85.996094 207.367188 88.960938 207.367188 92.621094 L 207.367188 115.804688 C 207.367188 119.460938 210.335938 122.425781 213.992188 122.425781 L 237.175781 122.425781 C 240.835938 122.425781 243.800781 119.460938 243.800781 115.804688 L 243.800781 92.621094 C 243.800781 88.960938 240.835938 85.996094 237.175781 85.996094 Z M 194.121094 145.609375 L 253.734375 145.609375 L 253.734375 158.859375 L 194.121094 158.859375 Z M 213.992188 182.042969 L 233.863281 182.042969 L 233.863281 168.792969 L 213.992188 168.792969 Z M 213.992188 208.539062 L 194.121094 208.539062 L 194.121094 195.289062 L 213.992188 195.289062 Z M 233.863281 208.539062 L 253.734375 208.539062 L 253.734375 195.289062 L 233.863281 195.289062 Z M 233.863281 208.539062 " fill-opacity="1" fill-rule="evenodd"/></g><g fill="#545454" fill-opacity="1"><g transform="translate(111.431988, 324.797753)"><g><path d="M 12.460938 0.445312 C 18.570312 0.445312 22.019531 -2.664062 22.019531 -7.476562 C 22.019531 -13.3125 17.035156 -14.371094 12.699219 -15.328125 C 9.421875 -16.046875 6.519531 -16.695312 6.519531 -19.355469 C 6.519531 -21.507812 8.296875 -22.738281 11.09375 -22.738281 C 13.859375 -22.738281 16.25 -21.507812 16.96875 -18.503906 L 21.304688 -18.503906 C 20.449219 -24.035156 16.011719 -26.457031 11.164062 -26.457031 C 6.007812 -26.457031 2.183594 -23.796875 2.183594 -18.980469 C 2.183594 -13.621094 6.894531 -12.597656 11.0625 -11.710938 C 14.507812 -10.957031 17.683594 -10.277344 17.683594 -7.203125 C 17.683594 -4.539062 15.566406 -3.277344 12.527344 -3.277344 C 9.660156 -3.277344 6.554688 -4.402344 5.703125 -8.261719 L 1.296875 -8.261719 C 2.015625 -1.84375 7.410156 0.445312 12.460938 0.445312 Z M 12.460938 0.445312 "/></g></g></g><g fill="#545454" fill-opacity="1"><g transform="translate(138.021175, 324.797753)"><g><path d="M 6.246094 0 L 6.246094 -9.183594 C 6.246094 -12.1875 6.621094 -13.792969 7.542969 -14.816406 C 8.226562 -15.636719 9.25 -16.046875 10.652344 -16.046875 C 11.8125 -16.046875 12.664062 -15.773438 13.246094 -15.125 C 13.929688 -14.371094 14.203125 -13.144531 14.203125 -11.164062 L 14.203125 0 L 18.265625 0 L 18.265625 -11.164062 C 18.265625 -12.835938 18.265625 -14.613281 17.410156 -16.320312 C 16.558594 -18.058594 14.882812 -19.425781 11.574219 -19.425781 C 9.523438 -19.425781 7.921875 -18.742188 6.246094 -16.488281 L 6.246094 -19.082031 L 2.21875 -19.082031 L 2.21875 0 Z M 6.246094 0 "/></g></g></g><g fill="#545454" fill-opacity="1"><g transform="translate(161.402017, 324.797753)"><g><path d="M 7.648438 0.375 C 9.355469 0.375 10.855469 0.101562 12.050781 -0.683594 C 12.800781 -1.160156 13.449219 -1.84375 13.964844 -2.730469 L 13.964844 0 L 17.992188 0 L 17.992188 -10.34375 C 17.992188 -12.527344 17.992188 -15.535156 15.875 -17.511719 C 14.441406 -18.8125 12.359375 -19.425781 10.140625 -19.425781 C 6.417969 -19.425781 2.832031 -17.375 2.152344 -13.074219 L 6.179688 -13.074219 C 6.554688 -15.019531 8.195312 -16.183594 10.105469 -16.183594 C 11.335938 -16.183594 12.289062 -15.804688 12.972656 -15.125 C 13.621094 -14.441406 13.964844 -13.484375 13.996094 -12.1875 L 7.953125 -11.0625 C 6.214844 -10.71875 4.675781 -10.242188 3.515625 -9.386719 C 2.21875 -8.433594 1.433594 -7.066406 1.433594 -5.1875 C 1.433594 -1.640625 3.996094 0.375 7.648438 0.375 Z M 8.535156 -2.902344 C 6.726562 -2.902344 5.460938 -3.753906 5.460938 -5.292969 C 5.460938 -6.007812 5.703125 -6.554688 6.144531 -7 C 6.726562 -7.542969 7.578125 -7.886719 8.945312 -8.160156 L 14.03125 -9.148438 C 14.03125 -6.417969 13.417969 -4.609375 11.164062 -3.480469 C 10.378906 -3.105469 9.492188 -2.902344 8.535156 -2.902344 Z M 8.535156 -2.902344 "/></g></g></g><g fill="#545454" fill-opacity="1"><g transform="translate(184.47567, 324.797753)"><g><path d="M 11.949219 -19.460938 C 9.558594 -19.460938 7.921875 -18.742188 6.246094 -16.488281 L 6.246094 -19.082031 L 2.21875 -19.082031 L 2.21875 6.964844 L 6.246094 6.964844 L 6.246094 -2.59375 C 7.953125 -0.308594 9.628906 0.339844 11.949219 0.339844 C 16.96875 0.339844 20.347656 -3.722656 20.347656 -9.558594 C 20.347656 -15.398438 16.96875 -19.460938 11.949219 -19.460938 Z M 11.128906 -15.976562 C 14.304688 -15.976562 16.285156 -13.246094 16.285156 -9.558594 C 16.285156 -5.871094 14.304688 -3.140625 11.128906 -3.140625 C 8.023438 -3.140625 5.835938 -5.804688 5.835938 -9.558594 C 5.835938 -13.3125 8.023438 -15.976562 11.128906 -15.976562 Z M 11.128906 -15.976562 "/></g></g></g><g fill="#545454" fill-opacity="1"><g transform="translate(209.39242, 324.797753)"><g><path d="M 26.390625 -13.042969 C 26.390625 -20.210938 22.394531 -26.457031 13.929688 -26.457031 C 5.429688 -26.457031 1.46875 -20.210938 1.46875 -13.042969 C 1.46875 -5.871094 5.429688 0.445312 13.929688 0.445312 C 15.773438 0.445312 17.410156 0.136719 18.84375 -0.410156 L 21.03125 2.96875 L 25.878906 2.96875 L 22.328125 -2.558594 C 25.058594 -5.085938 26.390625 -8.910156 26.390625 -13.042969 Z M 5.941406 -13.042969 C 5.941406 -18.640625 8.808594 -22.601562 13.929688 -22.601562 C 19.082031 -22.601562 21.917969 -18.640625 21.917969 -13.042969 C 21.917969 -7.410156 19.082031 -3.449219 13.929688 -3.449219 C 8.808594 -3.449219 5.941406 -7.410156 5.941406 -13.042969 Z M 5.941406 -13.042969 "/></g></g></g><g fill="#545454" fill-opacity="1"><g transform="translate(240.384535, 324.797753)"><g><path d="M 17.136719 -11.367188 C 19.800781 -12.5625 21.40625 -14.988281 21.40625 -18.433594 C 21.40625 -23.726562 18.058594 -26.046875 13.179688 -26.046875 L 2.425781 -26.046875 L 2.425781 0 L 6.757812 0 L 6.757812 -10.617188 L 12.972656 -10.617188 L 17.273438 0 L 21.953125 0 Z M 6.757812 -22.15625 L 12.597656 -22.15625 C 15.5 -22.15625 17.136719 -20.789062 17.136719 -18.296875 C 17.136719 -15.773438 15.535156 -14.40625 12.597656 -14.40625 L 6.757812 -14.40625 Z M 6.757812 -22.15625 "/></g></g></g><g fill="#737373" fill-opacity="1"><g transform="translate(111.54964, 361.255407)"><g><path d="M 7.96875 0 L 1.640625 0 L 1.640625 -11.59375 L 7.96875 -11.59375 L 7.96875 -10.84375 L 2.453125 -10.84375 L 2.453125 -6.453125 L 7.671875 -6.453125 L 7.671875 -5.71875 L 2.453125 -5.71875 L 2.453125 -0.75 L 7.96875 -0.75 Z M 7.96875 0 "/></g></g></g><g fill="#737373" fill-opacity="1"><g transform="translate(123.737024, 361.255407)"><g><path d="M 6.734375 0 L 2.421875 -10.703125 L 2.359375 -10.703125 C 2.398438 -10.046875 2.421875 -9.375 2.421875 -8.6875 L 2.421875 0 L 1.640625 0 L 1.640625 -11.59375 L 2.890625 -11.59375 L 7 -1.390625 L 7.046875 -1.390625 L 11.15625 -11.59375 L 12.375 -11.59375 L 12.375 0 L 11.5625 0 L 11.5625 -8.78125 C 11.5625 -9.394531 11.59375 -10.03125 11.65625 -10.6875 L 11.59375 -10.6875 L 7.25 0 Z M 6.734375 0 "/></g></g></g><g fill="#737373" fill-opacity="1"><g transform="translate(140.972661, 361.255407)"><g><path d="M 8.609375 -8.265625 C 8.609375 -7.140625 8.226562 -6.273438 7.46875 -5.671875 C 6.707031 -5.078125 5.628906 -4.78125 4.234375 -4.78125 L 2.453125 -4.78125 L 2.453125 0 L 1.640625 0 L 1.640625 -11.59375 L 4.484375 -11.59375 C 7.234375 -11.59375 8.609375 -10.484375 8.609375 -8.265625 Z M 2.453125 -5.484375 L 4.046875 -5.484375 C 5.347656 -5.484375 6.289062 -5.695312 6.875 -6.125 C 7.457031 -6.5625 7.75 -7.265625 7.75 -8.234375 C 7.75 -9.117188 7.472656 -9.773438 6.921875 -10.203125 C 6.367188 -10.640625 5.519531 -10.859375 4.375 -10.859375 L 2.453125 -10.859375 Z M 2.453125 -5.484375 "/></g></g></g><g fill="#737373" fill-opacity="1"><g transform="translate(153.698948, 361.255407)"><g><path d="M 1.640625 0 L 1.640625 -11.59375 L 2.453125 -11.59375 L 2.453125 -0.765625 L 7.96875 -0.765625 L 7.96875 0 Z M 1.640625 0 "/></g></g></g><g fill="#737373" fill-opacity="1"><g transform="translate(165.260261, 361.255407)"><g><path d="M 11.390625 -5.8125 C 11.390625 -3.96875 10.925781 -2.507812 10 -1.4375 C 9.082031 -0.375 7.816406 0.15625 6.203125 0.15625 C 4.585938 0.15625 3.316406 -0.375 2.390625 -1.4375 C 1.472656 -2.507812 1.015625 -3.972656 1.015625 -5.828125 C 1.015625 -7.671875 1.476562 -9.117188 2.40625 -10.171875 C 3.34375 -11.234375 4.613281 -11.765625 6.21875 -11.765625 C 7.832031 -11.765625 9.097656 -11.234375 10.015625 -10.171875 C 10.929688 -9.109375 11.390625 -7.65625 11.390625 -5.8125 Z M 1.90625 -5.8125 C 1.90625 -4.15625 2.273438 -2.875 3.015625 -1.96875 C 3.753906 -1.0625 4.816406 -0.609375 6.203125 -0.609375 C 7.597656 -0.609375 8.660156 -1.054688 9.390625 -1.953125 C 10.128906 -2.847656 10.5 -4.132812 10.5 -5.8125 C 10.5 -7.476562 10.128906 -8.753906 9.390625 -9.640625 C 8.660156 -10.535156 7.601562 -10.984375 6.21875 -10.984375 C 4.832031 -10.984375 3.765625 -10.535156 3.015625 -9.640625 C 2.273438 -8.742188 1.90625 -7.46875 1.90625 -5.8125 Z M 1.90625 -5.8125 "/></g></g></g><g fill="#737373" fill-opacity="1"><g transform="translate(180.895041, 361.255407)"><g><path d="M 4.296875 -5.25 L 7.703125 -11.59375 L 8.5625 -11.59375 L 4.703125 -4.484375 L 4.703125 0 L 3.875 0 L 3.875 -4.421875 L 0 -11.59375 L 0.921875 -11.59375 Z M 4.296875 -5.25 "/></g></g></g><g fill="#737373" fill-opacity="1"><g transform="translate(192.694105, 361.255407)"><g><path d="M 7.96875 0 L 1.640625 0 L 1.640625 -11.59375 L 7.96875 -11.59375 L 7.96875 -10.84375 L 2.453125 -10.84375 L 2.453125 -6.453125 L 7.671875 -6.453125 L 7.671875 -5.71875 L 2.453125 -5.71875 L 2.453125 -0.75 L 7.96875 -0.75 Z M 7.96875 0 "/></g></g></g><g fill="#737373" fill-opacity="1"><g transform="translate(204.88149, 361.255407)"><g><path d="M 7.96875 0 L 1.640625 0 L 1.640625 -11.59375 L 7.96875 -11.59375 L 7.96875 -10.84375 L 2.453125 -10.84375 L 2.453125 -6.453125 L 7.671875 -6.453125 L 7.671875 -5.71875 L 2.453125 -5.71875 L 2.453125 -0.75 L 7.96875 -0.75 Z M 7.96875 0 "/></g></g></g><g fill="#737373" fill-opacity="1"><g transform="translate(217.068874, 361.255407)"><g/></g></g><g fill="#737373" fill-opacity="1"><g transform="translate(224.517089, 361.255407)"><g><path d="M 1.640625 0 L 1.640625 -11.59375 L 2.453125 -11.59375 L 2.453125 -0.765625 L 7.96875 -0.765625 L 7.96875 0 Z M 1.640625 0 "/></g></g></g><g fill="#737373" fill-opacity="1"><g transform="translate(236.078402, 361.255407)"><g><path d="M 11.390625 -5.8125 C 11.390625 -3.96875 10.925781 -2.507812 10 -1.4375 C 9.082031 -0.375 7.816406 0.15625 6.203125 0.15625 C 4.585938 0.15625 3.316406 -0.375 2.390625 -1.4375 C 1.472656 -2.507812 1.015625 -3.972656 1.015625 -5.828125 C 1.015625 -7.671875 1.476562 -9.117188 2.40625 -10.171875 C 3.34375 -11.234375 4.613281 -11.765625 6.21875 -11.765625 C 7.832031 -11.765625 9.097656 -11.234375 10.015625 -10.171875 C 10.929688 -9.109375 11.390625 -7.65625 11.390625 -5.8125 Z M 1.90625 -5.8125 C 1.90625 -4.15625 2.273438 -2.875 3.015625 -1.96875 C 3.753906 -1.0625 4.816406 -0.609375 6.203125 -0.609375 C 7.597656 -0.609375 8.660156 -1.054688 9.390625 -1.953125 C 10.128906 -2.847656 10.5 -4.132812 10.5 -5.8125 C 10.5 -7.476562 10.128906 -8.753906 9.390625 -9.640625 C 8.660156 -10.535156 7.601562 -10.984375 6.21875 -10.984375 C 4.832031 -10.984375 3.765625 -10.535156 3.015625 -9.640625 C 2.273438 -8.742188 1.90625 -7.46875 1.90625 -5.8125 Z M 1.90625 -5.8125 "/></g></g></g><g fill="#737373" fill-opacity="1"><g transform="translate(251.713182, 361.255407)"><g><path d="M 6.203125 -5.84375 L 10.46875 -5.84375 L 10.46875 -0.5625 C 9.351562 -0.0820312 8.09375 0.15625 6.6875 0.15625 C 4.863281 0.15625 3.460938 -0.359375 2.484375 -1.390625 C 1.503906 -2.421875 1.015625 -3.882812 1.015625 -5.78125 C 1.015625 -6.957031 1.253906 -8 1.734375 -8.90625 C 2.222656 -9.820312 2.914062 -10.523438 3.8125 -11.015625 C 4.71875 -11.515625 5.753906 -11.765625 6.921875 -11.765625 C 8.191406 -11.765625 9.328125 -11.535156 10.328125 -11.078125 L 10 -10.34375 C 9 -10.8125 7.957031 -11.046875 6.875 -11.046875 C 5.351562 -11.046875 4.144531 -10.570312 3.25 -9.625 C 2.351562 -8.6875 1.90625 -7.414062 1.90625 -5.8125 C 1.90625 -4.0625 2.328125 -2.75 3.171875 -1.875 C 4.023438 -1 5.273438 -0.5625 6.921875 -0.5625 C 7.992188 -0.5625 8.898438 -0.707031 9.640625 -1 L 9.640625 -5.078125 L 6.203125 -5.078125 Z M 6.203125 -5.84375 "/></g></g></g></svg>